<?xml version="1.0" encoding="UTF-8" standalone="no"?>
<!-- Created with Inkscape (http://www.inkscape.org/) -->

<svg
   xmlns:dc="http://purl.org/dc/elements/1.1/"
   xmlns:cc="http://creativecommons.org/ns#"
   xmlns:rdf="http://www.w3.org/1999/02/22-rdf-syntax-ns#"
   xmlns:svg="http://www.w3.org/2000/svg"
   xmlns="http://www.w3.org/2000/svg"
   version="1.1"
   width="190.09"
   height="70.360001"
   id="svg3217">
  <defs
     id="defs3219" />
  <metadata
     id="metadata3222">
    <rdf:RDF>
      <cc:Work
         rdf:about="">
        <dc:format>image/svg+xml</dc:format>
        <dc:type
           rdf:resource="http://purl.org/dc/dcmitype/StillImage" />
        <dc:title></dc:title>
      </cc:Work>
    </rdf:RDF>
  </metadata>
  <g
     transform="translate(0,-982.0021)"
     id="layer1">
    <path
       d="m 1.3217957,1009.06 0,0 10e-4,0 c 6.2e-4,-7.1301 2.88737,-13.58886 7.556,-18.26386 4.6691203,-4.67513 11.1211203,-7.56825 18.2512503,-7.56925 l 0,-0.002 0.004,0 0.002,0 0,0.002 c 7.12738,3.7e-4 13.58088,2.8945 18.25125,7.57062 4.66863,4.67463 7.55713,11.13159 7.55826,18.26039 l 10e-4,0 0,0 0,0.034 -10e-4,0 c -0.003,1.9336 -0.21726,3.8176 -0.62113,5.6282 -0.405,1.8153 -1,3.5564 -1.76075,5.1995 -3.91712,8.4589 -12.27112,14.4389 -22.07512,14.9464 l -0.4,0.02 0,-0.4011 3.7e-4,-20.0324 2.5e-4,-0.3038 0.29488,-0.068 0.006,-10e-4 0,0 c 0.31325,-0.073 0.61375,-0.1753 0.89675,-0.3015 0.28525,-0.1276 0.55737,-0.2817 0.81287,-0.4582 1.30825,-0.906 2.166,-2.4183 2.166,-4.135 l 0,0 10e-4,0 c 0,-1.3865 -0.56337,-2.6412 -1.4725,-3.5482 -0.90887,-0.9072 -2.164,-1.4684 -3.54825,-1.4692 l 0,0 -0.005,0 -0.002,0 0,0 c -1.38587,0 -2.64013,0.5617 -3.54762,1.4692 l 0,10e-4 c -0.90689,0.9072 -1.46839,2.1604 -1.46914,3.5444 l 10e-4,0 0,0 0,0.01 -10e-4,0 c 0,0.4489 0.0616,0.8886 0.17538,1.3089 0.073,0.2711 0.169,0.534 0.2845,0.7845 0.59712,1.293 1.72737,2.2907 3.11037,2.711 l 0.27175,0.083 0,0.2814 0,20.1175 3.8e-4,0.4032 -0.40363,-0.023 -0.0311,0 c -1.90175,-0.1095 -3.74676,-0.4252 -5.51238,-0.923 -1.76662,-0.4982 -3.4575,-1.181 -5.04925,-2.0244 -8.1793703,-4.3351 -13.7483703,-12.9383 -13.7483703,-22.8515"
       id="path108"
       style="fill:#00a1e3;fill-opacity:1;fill-rule:evenodd;stroke:none" />
    <path
       d="m 78.019536,984.22404 0.55738,0 -1.53113,7.18612 -0.709,0 c -0.135,-4.061 -1.6965,-7.18612 -5.71637,-7.18612 -2.47887,0 -4.51025,1.72875 -4.51025,4.26887 0,5.736 9.8815,8.02425 9.8815,15.75609 0,4.7764 -3.78875,7.8498 -8.39613,7.8498 -2.74712,0 -5.87912,-1.1378 -7.82125,-3.1227 l -1.35775,1.7317 -0.54075,0 1.3975,-7.857 0.844,0 c 0.33275,4.4405 1.8135,8.3253 6.92013,8.3253 3.00225,0 5.1655,-2.3645 5.1655,-5.3316 0,-6.45409 -9.6815,-8.48121 -9.6815,-15.74496 0,-4.31538 3.58937,-6.81063 7.60287,-6.81063 2.535,0 4.65138,0.85075 6.63488,2.4555 l 1.26037,-1.52037 z"
       id="path110"
       style="fill:#292929;fill-opacity:1;fill-rule:evenodd;stroke:none" />
    <path
       d="m 87.49192,997.06604 2.10613,0 c 3.46387,0.0879 6.66812,0.67425 6.66812,5.19086 0,5.1974 -3.15425,8.4511 -8.18188,8.4511 -1.56612,0 -3.46387,-0.2051 -3.46387,-2.1957 0,-0.884 0.54037,-2.7868 0.74862,-3.6825 l 2.12288,-7.76376 z m -11.662134,14.57106 c 1.98813,-0.034 3.930634,-0.123 5.918004,-0.1626 2.57425,0.04 5.10663,0.129 7.68125,0.1626 4.984,0.091 11.06425,-1.9881 11.06425,-8.0974 0,-4.53304 -3.32712,-6.08816 -7.18475,-6.81416 l 0,-0.0834 c 3.81788,-0.50375 8.54825,-2.06675 8.54825,-6.71563 0,-4.98075 -4.866,-6.17025 -8.92062,-6.2535 -1.48075,0.13538 -2.91113,0.13538 -4.38763,0.17213 -1.9135,-0.0365 -3.773,-0.1325 -5.67537,-0.17213 l -0.247,0.92763 c 1.0195,0.0457 3.72187,-0.20838 3.72187,1.47575 0,0.7215 -0.59237,2.5395 -0.811,3.26337 l -4.55562,17.06004 c -0.89013,3.1254 -1.18238,4.4769 -4.899004,4.3064 l -0.25263,0.9309 z M 90.02529,987.51391 c 0.15813,-0.58287 0.4515,-1.81312 0.8005,-2.28112 0.32638,-0.49713 1.22663,-0.63213 1.77338,-0.63213 2.8715,0 5.236,0.97513 5.236,4.439 0,4.85938 -2.78688,6.97038 -7.38813,7.098 l -2.70362,0 2.28187,-8.62375 z"
       id="path112"
       style="fill:#292929;fill-opacity:1;fill-rule:evenodd;stroke:none" />
    <path
       d="m 109.31867,1006.0622 c -0.16862,0.6816 -0.79375,2.5798 -0.79375,3.2562 0,1.604 2.20187,1.35 3.672,1.3894 l -0.29275,0.9293 c -1.98813,-0.034 -3.97562,-0.123 -5.95125,-0.1626 -1.94388,0.04 -3.84025,0.129 -5.79512,0.1626 l 0.26012,-0.9293 c 3.7055,0.1703 4.00287,-1.1818 4.89888,-4.3066 l 4.89299,-17.05991 c 0.16863,-0.68175 0.72138,-2.50625 0.72138,-3.17375 0,-1.7285 -2.23538,-1.52013 -3.7615,-1.56613 l 0.24687,-0.92737 c 1.83013,0.0397 3.63725,0.135 5.467,0.17187 2.19125,-0.0365 4.348,-0.13212 6.54375,-0.17187 l -0.25825,0.92737 c -1.18837,0.046 -2.82787,0 -3.58649,1.05975 -0.62613,0.80463 -1.48675,3.87988 -1.78588,4.89613 l -4.478,15.50491 z"
       id="path114"
       style="fill:#292929;fill-opacity:1;fill-rule:evenodd;stroke:none" />
    <path
       d="m 151.1148,1011.6371 c -5.99101,-0.034 -12.03413,-0.123 -18.0305,-0.1626 -1.85275,0.04 -3.75701,0.129 -5.61613,0.1626 l 0.24875,-0.9293 c 3.71588,0.1703 4.01525,-1.1818 4.89325,-4.3066 l 4.606,-17.05991 c 0.22,-0.72463 0.81737,-2.54238 0.81737,-3.26338 0,-1.68425 -2.71375,-1.47587 -3.72212,-1.47587 l 0.24687,-0.92725 c 1.86313,0.0396 3.68263,0.135 5.53538,0.17187 2.14625,-0.0365 4.275,-0.13225 6.41487,-0.17187 l -0.23712,0.92725 c -1.19338,0 -2.83288,0.0457 -3.60388,1.0995 -0.62612,0.80475 -1.47575,3.87812 -1.77337,4.90212 l -3.91963,14.57264 c -0.26475,0.9322 -0.64237,2.4073 -0.64237,3.3363 0,2.7035 4.18387,2.1958 5.744,2.1958 5.41837,0 7.8225,-0.7983 10.012,-6.1656 l 0.94137,0 -1.91475,7.0943 z"
       id="path116"
       style="fill:#292929;fill-opacity:1;fill-rule:evenodd;stroke:none" />
    <path
       d="m 157.88317,1000.5204 c 0.3725,-1.01311 1.56588,-4.04861 1.56588,-5.06161 0,-0.422 -0.27038,-0.83338 -0.73775,-0.83338 -1.2955,0 -3.3605,3.4515 -3.95926,4.59525 l -0.84437,-0.462 c 1.222,-2.07287 2.96325,-5.406 5.65962,-5.406 1.60938,0 2.61825,1.38788 2.61825,2.8715 0,2.02138 -1.21612,4.56164 -1.98825,6.45904 l -1.351,3.4242 c -0.24737,0.7215 -1.26675,3.2485 -1.26675,4.015 0,0.3299 0.25375,0.7154 0.642,0.7154 1.60413,0 3.874,-3.762 4.517,-5.0701 l 0.84413,0.4223 c -1.05813,2.1986 -3.26025,5.9091 -6.00313,5.9091 -1.72837,0 -2.73687,-1.3911 -2.73687,-3.0341 0,-1.7734 1.18212,-4.0546 1.85775,-5.7053 l 1.18275,-2.8393 z m 2.3145,-14.69661 c 0,-1.08713 0.81112,-1.98813 1.89787,-1.98813 1.14375,0 1.942,0.90038 1.942,1.98813 0,1.01125 -0.86662,1.8645 -1.942,1.8645 -0.99612,0 -1.89787,-0.80013 -1.89787,-1.8645"
       id="path118"
       style="fill:#292929;fill-opacity:1;fill-rule:evenodd;stroke:none" />
    <path
       d="m 170.35067,1008.642 c -1.14837,4.5999 -3.05887,14.322 -9.55062,14.322 -1.48675,0 -3.59925,-0.6895 -3.59925,-2.4555 0,-0.6307 0.46349,-1.1874 1.14374,-1.1874 1.85275,0 0.75513,2.706 2.78226,2.706 1.90237,0 3.00187,-3.0351 3.54787,-4.4266 l 5.82837,-22.73034 -3.46212,0 0.29763,-0.92587 3.43525,0 c 1.24975,-4.18388 3.02412,-10.51925 8.3965,-10.51925 1.43087,0 3.593,0.80037 3.593,2.5285 0,0.63212 -0.37775,1.22237 -1.0535,1.22237 -0.97363,0 -1.27275,-0.75225 -1.48075,-1.51375 -0.18038,-0.761 -0.38225,-1.31487 -1.27275,-1.31487 -3.2435,0 -4.3915,7.35625 -5.02363,9.59775 l 3.67825,0 -0.293,0.92625 -3.59937,0 -3.36788,13.77071 z"
       id="path120"
       style="fill:#292929;fill-opacity:1;fill-rule:evenodd;stroke:none" />
    <path
       d="m 180.10504,1003.7405 c 0.664,-2.5433 3.20888,-9.46409 6.28413,-9.46409 0.85075,0 1.31237,0.55125 1.31237,1.39738 0,3.75525 -4.60137,6.76171 -7.5965,8.06671 z m 7.39276,2.3673 c -1.531,2.0218 -3.55325,5.0683 -6.38575,5.0683 -1.44138,0 -2.06038,-1.0981 -2.06038,-2.4161 0,-1.3482 0.31563,-2.6511 0.709,-3.8782 l 0.67575,-0.3054 c 3.37313,-1.3847 9.59025,-3.8767 9.59025,-8.31436 0,-1.77063 -1.31237,-2.908 -3.03412,-2.908 -5.9195,0 -10.9935,8.61066 -10.9935,13.93826 0,2.9108 1.77987,4.8083 4.73675,4.8083 3.37925,0 5.78337,-2.8683 7.5175,-5.4474 l -0.7555,-0.5454 z"
       id="path122"
       style="fill:#292929;fill-opacity:1;fill-rule:evenodd;stroke:none" />
    <path
       d="m 58.287916,1034.1793 c 0.72175,-0.1095 0.91775,-0.3185 1.09813,-0.9715 l 1.46399,-5.4369 c 0.0624,-0.2183 0.0794,-0.3828 0.0794,-0.5238 0,-0.3795 -0.293,-0.4446 -1.01338,-0.4843 l 0.11663,-0.4699 c 0.77775,0.024 1.48212,0.037 2.07925,0.037 0.371,0 0.96263,-0.012 1.77375,-0.037 l -0.1294,0.4699 c -0.62575,0.068 -0.92437,0.3055 -1.09312,0.9687 l -1.447,5.4288 c -0.073,0.214 -0.083,0.3936 -0.083,0.535 0,0.3947 0.28062,0.4511 1.00212,0.484 l -0.11837,0.472 c -0.90638,-0.02 -1.58813,-0.038 -2.0565,-0.038 -0.32638,0 -0.91738,0.016 -1.7905,0.038 l 0.118,-0.472 z"
       id="path124"
       style="fill:#292929;fill-opacity:1;fill-rule:evenodd;stroke:none" />
    <path
       d="m 70.159416,1034.1793 c 0.69275,-0.068 1.02475,-0.3125 1.19975,-0.9715 l 1.45812,-5.4369 c 0.067,-0.247 0.102,-0.405 0.102,-0.5068 0,-0.3905 -0.32212,-0.4843 -1.0375,-0.5017 l 0.135,-0.4695 c 0.54675,0.024 0.95813,0.036 1.25113,0.036 0.32637,0 0.70912,-0.012 1.1485,-0.036 l 2.9235,6.0162 1.04175,-4.302 c 0.067,-0.2642 0.0833,-0.4552 0.0833,-0.5402 0,-0.5071 -0.25363,-0.6198 -1.02963,-0.7045 l 0.0956,-0.4695 c 0.54037,0.024 1.01337,0.036 1.418004,0.036 0.29313,0 0.71537,-0.012 1.27275,-0.036 l 0,0.4695 c -0.80427,0.1244 -1.0084,0.5404 -1.22665,1.3716 l -1.763504,6.688 -0.52337,4e-4 -3.37925,-6.9658 -1.294,5.361 c -0.0288,0.085 -0.0351,0.185 -0.0351,0.276 0,0.4525 0.231,0.5972 0.98612,0.6864 l -0.067,0.472 c -0.64875,-0.021 -1.07675,-0.038 -1.31812,-0.038 -0.33901,0 -0.82726,0.017 -1.44138,0.038 l 0,-0.4727 z"
       id="path126"
       style="fill:#292929;fill-opacity:1;fill-rule:evenodd;stroke:none" />
    <path
       d="m 87.82355,1032.02 0.47375,0 c 0.10024,1.3911 0.85075,2.1958 1.95299,2.1958 0.85076,0 1.39076,-0.5149 1.39076,-1.3543 0,-0.6246 -0.44925,-1.0916 -1.17101,-1.7617 -0.95599,-0.8402 -1.75712,-1.4705 -1.75712,-2.656 0,-1.343 1.002,-2.3284 2.50612,-2.3284 0.63038,0 1.2455,0.2445 1.79688,0.7154 l 0.26463,-0.5372 0.484,0 -0.416,2.3053 -0.47338,0 c 0,-1.2011 -0.56225,-1.869 -1.49775,-1.869 -0.698,0 -1.239,0.507 -1.239,1.1101 0,0.4333 0.282,0.8156 0.8,1.294 1.283,1.1998 2.2355,1.9041 2.2355,3.223 0,1.3159 -1.08137,2.4665 -2.65287,2.4665 -0.83838,0 -1.46413,-0.1914 -2.2295,-0.8235 l -0.343,0.653 -0.46763,0 0.34263,-2.633 z"
       id="path128"
       style="fill:#292929;fill-opacity:1;fill-rule:evenodd;stroke:none" />
    <path
       d="m 103.20967,1026.2936 c 0.811,0.024 1.48637,0.036 2.03175,0.036 0.59838,0 1.29075,-0.012 2.07275,-0.036 l -0.10625,0.4695 c -0.9355,0.04 -1.1725,0.3058 -1.43687,1.2792 l -0.69838,2.5968 c -0.19125,0.703 -0.37662,1.3029 -0.37662,1.8468 0,0.9627 0.71537,1.5137 1.80112,1.5137 1.05338,0 1.71775,-0.6246 2.22438,-1.9197 0.33912,-0.854 0.6595,-1.912 0.9295,-3.1773 0.17462,-0.8111 0.26425,-1.2968 0.26425,-1.4805 0,-0.462 -0.27063,-0.6072 -0.951,-0.6593 l 0.0957,-0.4699 c 0.55124,0.024 1.04624,0.037 1.464,0.037 0.32637,0 0.73174,-0.012 1.21612,-0.037 l -0.0166,0.4699 c -0.42388,0.068 -0.68813,0.1778 -0.87913,0.4511 -0.30937,0.4382 -0.518,1.6614 -1.05837,3.561 -0.77138,2.7379 -1.67175,4.0471 -3.80125,4.0471 -1.88151,0 -2.99663,-0.9127 -2.99663,-2.4839 0,-0.3826 0.0684,-0.8942 0.20837,-1.4743 l 0.83338,-3.0923 c 0.0688,-0.2182 0.0734,-0.3826 0.0734,-0.524 0,-0.3795 -0.28062,-0.4446 -1.01337,-0.4844 l 0.11975,-0.4695 z"
       id="path130"
       style="fill:#292929;fill-opacity:1;fill-rule:evenodd;stroke:none" />
    <path
       d="m 121.79292,1030.1385 0.68625,-2.548 c 0.158,-0.574 0.20375,-0.7169 0.82212,-0.7169 0.78375,0 1.20013,0.3735 1.20013,1.05 0,1.3769 -0.83375,2.2159 -2.12288,2.2159 l -0.58562,-2e-4 0,-8e-4 z m -3.768,4.5138 c 0.83337,-0.038 1.46412,-0.073 1.88012,-0.073 0.41775,0 1.04838,0.035 1.88788,0.073 l 0.12887,-0.4719 c -0.73762,-0.034 -1.02462,-0.089 -1.02462,-0.4844 0,-0.1417 0.0286,-0.3204 0.0892,-0.5347 l 0.65475,-2.4428 c 0,0 0.0496,0 0.0833,0 1.02475,0 1.4135,0.2793 1.4135,1.1236 0,0.3427 -0.056,0.7612 -0.056,1.2589 0,1.1453 0.56725,1.7206 1.72387,1.7206 0.77138,0 1.36238,-0.3266 1.869,-1.0246 l -0.40462,-0.343 c -0.31575,0.3763 -0.62013,0.5449 -0.90675,0.5449 -0.451,0 -0.38413,-0.5286 -0.41775,-1.3783 -0.0333,-1.2331 -0.28063,-1.8135 -1.52,-2.0732 l 0,-0.031 c 1.93137,-0.2053 2.9235,-1.051 2.9235,-2.3823 0,-1.3716 -1.14375,-1.8407 -3.43525,-1.8407 -0.50175,0 -1.01475,0.014 -1.55513,0.014 -0.29762,0 -0.78237,0 -1.45312,-0.014 l -0.13538,0.4699 c 0.73813,0.04 1.01488,0.1048 1.01488,0.484 0,0.1417 -0.0227,0.3057 -0.073,0.5241 l -1.4535,5.4367 c -0.19138,0.6343 -0.49075,0.8824 -1.13138,0.9717 l -0.10237,0.4726 z"
       id="path132"
       style="fill:#292929;fill-opacity:1;fill-rule:evenodd;stroke:none" />
    <path
       d="m 136.50679,1031.4116 2.10013,-3.066 0.073,3.066 -2.17313,0 z m -3.30587,3.2407 c 0.65438,-0.021 1.12638,-0.038 1.45913,-0.038 0.23737,0 0.67575,0.017 1.30637,0.038 l 0.10813,-0.4719 c -0.65488,-0.046 -0.9355,-0.146 -0.9355,-0.4844 0,-0.1417 0.0734,-0.3374 0.18037,-0.5177 l 0.80475,-1.1859 2.55575,-4e-4 0.0624,1.5414 0,0.011 c 0,0.451 -0.32638,0.591 -1.12538,0.636 l -0.0844,0.472 c 0.827,-0.021 1.47437,-0.038 1.91525,-0.038 0.32025,0 0.90025,0.017 1.76162,0.038 l 0.0745,-0.472 c -0.64212,-0.046 -0.83337,-0.1974 -0.86675,-0.8171 l -0.389,-7.2468 -0.60837,4e-4 -4.629,6.8049 c -0.50138,0.7292 -0.827,1.1906 -1.49738,1.259 l -0.0925,0.4718 z"
       id="path134"
       style="fill:#292929;fill-opacity:1;fill-rule:evenodd;stroke:none" />
    <path
       d="m 149.15992,1034.1793 c 0.69238,-0.068 1.02475,-0.3125 1.20588,-0.9715 l 1.45799,-5.4369 c 0.0624,-0.247 0.0954,-0.405 0.0954,-0.5068 0,-0.3905 -0.32638,-0.4843 -1.02938,-0.5017 l 0.12901,-0.4695 c 0.54037,0.024 0.94637,0.036 1.24399,0.036 0.32175,0 0.7105,-0.012 1.1555,-0.036 l 2.92213,6.0162 1.04812,-4.302 c 0.056,-0.2642 0.0833,-0.4552 0.0833,-0.5402 0,-0.5071 -0.25187,-0.6198 -1.03562,-0.7045 l 0.0846,-0.4695 c 0.55138,0.024 1.02475,0.036 1.42438,0.036 0.29312,0 0.7215,-0.012 1.26637,-0.036 l 0,0.4695 c -0.79367,0.1244 -0.98967,0.5404 -1.22667,1.3716 l -1.75113,6.688 -0.524,4e-4 -3.37925,-6.9658 -1.30187,5.361 c -0.0332,0.085 -0.0396,0.185 -0.0396,0.276 0,0.4525 0.23738,0.5972 0.99775,0.6864 l -0.0684,0.472 c -0.65338,-0.021 -1.08138,-0.038 -1.30638,-0.038 -0.34912,0 -0.82175,0.017 -1.45312,0.038 l 0,-0.4727 0.001,0 z"
       id="path136"
       style="fill:#292929;fill-opacity:1;fill-rule:evenodd;stroke:none" />
    <path
       d="m 172.04579,1034.0553 c -0.68662,0.5357 -1.39574,0.7663 -2.28149,0.7663 -1.94213,0 -3.26488,-1.3287 -3.26488,-3.3331 0,-1.6965 0.838,-3.408 2.21925,-4.421 0.827,-0.6229 1.78437,-0.9525 2.72437,-0.9525 0.78988,0 1.39075,0.2443 1.96625,0.7938 l 0.39363,-0.6165 0.46212,0 -0.48437,2.5713 -0.48438,-3e-4 c -0.0337,-1.3833 -0.70912,-2.1745 -1.6555,-2.1745 -0.755,0 -1.49137,0.4733 -2.09012,1.3768 -0.73175,1.1314 -1.18713,2.6834 -1.18713,3.9104 0,1.3971 0.67538,2.1791 1.7735,2.1791 1.11013,0 2.06675,-0.7592 2.6465,-2.2243 l 0.462,0 -0.68175,2.7197 -0.462,0 -0.056,-0.5952 z"
       id="path138"
       style="fill:#292929;fill-opacity:1;fill-rule:evenodd;stroke:none" />
    <path
       d="m 181.12804,1034.1793 c 0.63213,-0.1095 0.92938,-0.349 1.11051,-0.9715 l 1.464,-5.4369 c 0.0496,-0.2183 0.073,-0.3828 0.073,-0.5238 0,-0.3795 -0.29763,-0.4446 -1.013,-0.4843 l 0.118,-0.4699 6.19975,0 0.14662,2.1427 -0.46762,0 c -0.27075,-1.1725 -0.8795,-1.5626 -2.25188,-1.5626 -0.118,0 -0.41138,0.024 -0.86663,0.067 l -0.78374,2.9231 0.68162,0 c 0.85688,0 1.22675,-0.2756 1.59312,-1.1933 l 0.45713,0 -0.8235,3.2712 -0.45563,0 c 0.0336,-0.2505 0.056,-0.4192 0.056,-0.5301 0,-0.5709 -0.37212,-0.9145 -1.03075,-0.9145 l -0.6535,0 -0.64062,2.3995 c -0.0514,0.1914 -0.0794,0.3536 -0.0794,0.4415 0,0.4921 0.38275,0.7522 1.15375,0.7522 1.56013,0 2.34213,-0.2601 3.09225,-1.8496 l 0.462,-4e-4 -0.65937,2.4117 -7.0055,0 0.12337,-0.472 z"
       id="path140"
       style="fill:#292929;fill-opacity:1;fill-rule:evenodd;stroke:none" />
    <path
       d="m 74.444286,1044.0035 1.35613,5.8315 1.62775,-5.8315 1.03613,0 1.621744,5.8365 1.36376,-5.8365 1.04712,0 -1.8755,7.1543 -1.007,0 -1.667884,-5.9305 -1.65512,5.9305 -1.025,0 -1.8695,-7.1543 1.04737,0 z"
       id="path142"
       style="fill:#292929;fill-opacity:1;fill-rule:evenodd;stroke:none" />
    <path
       d="m 83.76967,1045.9598 0.88363,0 0,5.1987 -0.88363,0 0,-5.1987 z m 0,-1.9702 0.88363,0 0,1.0067 -0.88363,3e-4 0,-1.007 z"
       id="path144"
       style="fill:#292929;fill-opacity:1;fill-rule:evenodd;stroke:none" />
    <path
       d="m 86.65317,1044.502 0.88437,0 0,1.4371 0.84438,-3e-4 0,0.7317 -0.84438,0 0,3.3839 c 0,0.1804 0.0684,0.2994 0.19138,0.3664 0.073,0.035 0.185,0.056 0.343,0.056 0.0457,0 0.0952,-0.01 0.135,-0.01 0.0564,-0.012 0.12437,-0.012 0.175,-0.029 l 0,0.7155 c -0.10625,0.023 -0.19125,0.049 -0.30963,0.07 -0.1,0 -0.23075,0.01 -0.36,0.01 -0.40462,0 -0.68637,-0.1022 -0.83975,-0.3158 -0.146,-0.196 -0.21825,-0.478 -0.21825,-0.8047 l 0,-3.4459 -0.7045,-3e-4 0,-0.7317 0.7045,0 0,-1.4375 -0.001,0 z"
       id="path146"
       style="fill:#292929;fill-opacity:1;fill-rule:evenodd;stroke:none" />
    <path
       d="m 89.76167,1043.9896 0.8735,0 0,2.6512 c 0.21225,-0.2538 0.39962,-0.4363 0.55775,-0.5433 0.29125,-0.1881 0.64062,-0.2777 1.069,-0.2777 0.755,0 1.25575,0.2643 1.537,0.7982 0.14713,0.2903 0.21012,0.6928 0.21012,1.2001 l 0,3.3397 -0.89575,0 0,-3.2893 c 0,-0.3764 -0.046,-0.664 -0.14175,-0.838 -0.15625,-0.2902 -0.462,-0.4284 -0.90662,-0.4284 -0.35362,0 -0.68038,0.118 -0.97975,0.372 -0.293,0.242 -0.44938,0.7264 -0.44938,1.4184 l 0,2.7656 -0.873,4e-4 0,-7.1689 -10e-4,0 z"
       id="path148"
       style="fill:#292929;fill-opacity:1;fill-rule:evenodd;stroke:none" />
    <path
       d="m 100.26905,1044.0035 0,4.4039 c 0,0.5259 0.0892,0.9596 0.28662,1.3096 0.293,0.5116 0.76675,0.7683 1.4535,0.7683 0.827,0 1.39075,-0.2793 1.67775,-0.8417 0.158,-0.3053 0.23738,-0.7103 0.23738,-1.2362 l 0,-4.4039 0.99575,0 0,4.0184 c 0,0.8781 -0.118,1.5474 -0.36613,2.0317 -0.433,0.8572 -1.25575,1.2894 -2.4665,1.2894 -1.20612,0 -2.02137,-0.4332 -2.46187,-1.2894 -0.22463,-0.484 -0.35363,-1.1536 -0.35363,-2.0317 l 0,-4.0184 0.99713,0 z"
       id="path150"
       style="fill:#292929;fill-opacity:1;fill-rule:evenodd;stroke:none" />
    <path
       d="m 107.30317,1049.5225 c 0.0334,0.2903 0.10638,0.5116 0.23113,0.664 0.22462,0.2735 0.61362,0.4146 1.16,0.4146 0.32037,0 0.61375,-0.059 0.86712,-0.2037 0.25188,-0.146 0.37625,-0.3633 0.37625,-0.6534 0,-0.2311 -0.10625,-0.3901 -0.30937,-0.5054 -0.13538,-0.075 -0.37663,-0.158 -0.755,-0.2596 l -0.70301,-0.1687 c -0.45712,-0.1084 -0.78387,-0.231 -0.99749,-0.3724 -0.371,-0.242 -0.56225,-0.5694 -0.56225,-0.9861 0,-0.495 0.17887,-0.89 0.53887,-1.1998 0.349,-0.3044 0.82875,-0.4556 1.42588,-0.4556 0.80462,0 1.39112,0.231 1.72875,0.6817 0.21999,0.3072 0.32637,0.6169 0.32025,0.9563 l -0.83825,4e-4 c -0.0164,-0.1974 -0.0847,-0.3827 -0.20838,-0.5432 -0.19738,-0.2218 -0.56337,-0.3462 -1.05338,-0.3462 -0.33137,0 -0.59712,0.073 -0.75974,0.1946 -0.18038,0.1211 -0.26613,0.2898 -0.26613,0.5038 0,0.2201 0.11375,0.4028 0.3395,0.5403 0.14138,0.083 0.33237,0.158 0.58,0.2169 l 0.59713,0.1431 c 0.63062,0.1418 1.06437,0.3044 1.27275,0.4388 0.34299,0.226 0.51762,0.58 0.51762,1.0534 0,0.478 -0.17463,0.8776 -0.53462,1.2075 -0.35551,0.336 -0.89013,0.5067 -1.62188,0.5067 -0.78375,0 -1.33513,-0.1719 -1.66775,-0.5209 -0.32675,-0.3458 -0.49538,-0.7883 -0.52413,-1.3096 l 0.84613,0 0,0 z"
       id="path152"
       style="fill:#292929;fill-opacity:1;fill-rule:evenodd;stroke:none" />
    <path
       d="m 112.44455,1052.1935 c 0.231,-0.044 0.39475,-0.2056 0.48437,-0.478 0.0496,-0.146 0.073,-0.2931 0.073,-0.4284 0,-0.021 0,-0.05 0,-0.05 0,-0.029 0,-0.056 0,-0.056 l -0.55737,-0.023 0,-1.0645 1.04174,0 0,0.9979 c 0,0.3763 -0.0734,0.726 -0.23699,1.013 -0.15663,0.293 -0.41638,0.4738 -0.80475,0.5375 l 0,-0.4489 z"
       id="path154"
       style="fill:#292929;fill-opacity:1;fill-rule:evenodd;stroke:none" />
    <path
       d="m 118.17692,1044.0035 1.1505,0 2.06012,3.4384 2.06675,-3.4384 1.142,0 -2.71337,4.2764 0,2.8779 -0.98575,0 0,-2.8779 -2.72025,-4.2764 z"
       id="path156"
       style="fill:#292929;fill-opacity:1;fill-rule:evenodd;stroke:none" />
    <path
       d="m 126.93317,1050.5869 c -0.51812,0 -0.90675,-0.1835 -1.13775,-0.5528 -0.24175,-0.3731 -0.36612,-0.8305 -0.36612,-1.3878 0,-0.58 0.12437,-1.0787 0.36612,-1.4808 0.231,-0.4114 0.61963,-0.6197 1.15363,-0.6197 0.59737,0 1.02475,0.2406 1.26212,0.7263 0.15775,0.3079 0.23713,0.7013 0.23713,1.1885 0,0.5375 -0.10813,1.0297 -0.33275,1.4737 -0.20263,0.4415 -0.59,0.6526 -1.18238,0.6526 z m 0.0333,-4.7895 c -0.74263,0 -1.33362,0.258 -1.77337,0.7775 -0.46213,0.5147 -0.65763,1.221 -0.65763,2.094 0,0.8111 0.17888,1.4577 0.60688,1.9549 0.42237,0.484 0.99612,0.72 1.70687,0.72 0.85537,0 1.49138,-0.2778 1.89638,-0.8274 0.40112,-0.5371 0.60912,-1.2376 0.60912,-2.0778 0,-0.8702 -0.23113,-1.5265 -0.69275,-1.9707 -0.467,-0.4405 -1.02362,-0.6705 -1.6955,-0.6705"
       id="path158"
       style="fill:#292929;fill-opacity:1;fill-rule:evenodd;stroke:none" />
    <path
       d="m 131.7928,1045.9381 0,3.4593 c 0,0.2736 0.0514,0.4936 0.14174,0.6562 0.15163,0.3218 0.43825,0.478 0.83975,0.478 0.597,0 1.01338,-0.2806 1.227,-0.822 0.11275,-0.2976 0.17475,-0.6927 0.17475,-1.2107 l 0,-2.5619 0.87763,4e-4 0,5.2192 -0.83838,4e-4 0.0112,-0.7654 c -0.10625,0.1914 -0.242,0.36 -0.40962,0.5018 -0.33263,0.2736 -0.73163,0.4096 -1.19975,0.4096 -0.72813,0 -1.233,-0.247 -1.49313,-0.7426 -0.135,-0.2644 -0.20837,-0.6273 -0.20837,-1.0705 l 0,-3.5518 0.87737,0 z"
       id="path160"
       style="fill:#292929;fill-opacity:1;fill-rule:evenodd;stroke:none" />
    <path
       d="m 137.71292,1043.9896 -0.158,2.8659 -0.56337,0 -0.16863,-2.8659 0.89,0 z"
       id="path162"
       style="fill:#292929;fill-opacity:1;fill-rule:evenodd;stroke:none" />
    <path
       d="m 139.40092,1045.9381 0.84412,0 0,0.8887 c 0.0686,-0.1733 0.24338,-0.3827 0.50701,-0.636 0.26462,-0.247 0.56937,-0.3707 0.91274,-0.3707 0,0 0.0496,0 0.0893,0.01 0.0338,0 0.0958,0 0.19775,0.02 l 0,0.9128 c -0.0564,-0.02 -0.102,-0.02 -0.14175,-0.026 -0.0496,0 -0.0956,0 -0.15163,0 -0.45113,0 -0.78237,0.1386 -1.01938,0.4142 -0.23712,0.3044 -0.34899,0.6247 -0.34899,0.996 l 0,3.0133 -0.89013,0 0,-5.2196 0.001,0 z"
       id="path164"
       style="fill:#292929;fill-opacity:1;fill-rule:evenodd;stroke:none" />
    <path
       d="m 143.8493,1048.1254 c 0.0286,-0.4493 0.164,-0.8189 0.43475,-1.1055 0.27024,-0.2994 0.60687,-0.4448 1.00837,-0.4448 0.55738,0 0.96275,0.2109 1.18737,0.6308 0.135,0.237 0.21363,0.5435 0.25338,0.9205 l -2.88387,-3e-4 0,-7e-4 z m 1.50512,-2.3053 c -0.738,0 -1.32412,0.2643 -1.77975,0.782 -0.45113,0.524 -0.67538,1.2062 -0.67538,2.0445 0,0.8508 0.22463,1.5123 0.67538,1.9878 0.43863,0.4734 0.99,0.7094 1.63838,0.7094 0.276,0 0.507,-0.024 0.70899,-0.078 0.39513,-0.085 0.72638,-0.2707 0.9915,-0.5272 0.15163,-0.1517 0.304,-0.3416 0.42838,-0.5801 0.12888,-0.225 0.19587,-0.4419 0.225,-0.636 l -0.8675,0 c -0.0514,0.2339 -0.16863,0.4419 -0.32163,0.6138 -0.27074,0.3007 -0.63612,0.451 -1.09174,0.451 -0.47838,0 -0.84438,-0.1549 -1.07538,-0.4844 -0.231,-0.3125 -0.36137,-0.7473 -0.37775,-1.2813 l 3.813,-3e-4 c 0,-0.5347 -0.0291,-0.9174 -0.0794,-1.1484 -0.0564,-0.349 -0.18074,-0.6534 -0.34937,-0.9191 -0.18038,-0.2807 -0.43837,-0.5014 -0.78838,-0.6694 -0.34262,-0.1814 -0.698,-0.2643 -1.07437,-0.2643"
       id="path166"
       style="fill:#292929;fill-opacity:1;fill-rule:evenodd;stroke:none" />
    <path
       d="m 153.27055,1048.8493 c 0.0226,0.4096 0.108,0.7317 0.282,0.9857 0.31437,0.4784 0.85537,0.72 1.64312,0.72 0.349,0 0.671,-0.056 0.95237,-0.1576 0.56938,-0.2109 0.84438,-0.5709 0.84438,-1.0815 0,-0.3936 -0.123,-0.6743 -0.366,-0.8444 -0.231,-0.159 -0.60312,-0.2976 -1.12075,-0.4191 l -0.94613,-0.2169 c -0.60125,-0.135 -1.042,-0.2976 -1.30637,-0.4649 -0.43825,-0.3007 -0.65938,-0.7518 -0.65938,-1.3425 0,-0.6488 0.22,-1.1873 0.65938,-1.5962 0.44475,-0.4146 1.05337,-0.623 1.84187,-0.623 0.73663,0 1.356,0.1807 1.85775,0.5436 0.524,0.3691 0.77738,0.9368 0.77738,1.7446 l -0.906,-2e-4 c -0.0461,-0.3938 -0.15813,-0.6804 -0.30438,-0.8841 -0.28675,-0.3732 -0.76687,-0.5669 -1.44712,-0.5669 -0.55275,0 -0.94,0.1184 -1.19975,0.3649 -0.231,0.2385 -0.349,0.5255 -0.349,0.8352 0,0.3585 0.135,0.6088 0.416,0.7774 0.19275,0.1062 0.609,0.231 1.26212,0.3951 l 0.97963,0.2246 c 0.48412,0.1067 0.83975,0.2583 1.09775,0.4557 0.44475,0.3327 0.65937,0.8171 0.65937,1.4595 0,0.7883 -0.28062,1.3556 -0.83799,1.6947 -0.58001,0.3494 -1.22201,0.5213 -1.97113,0.5213 -0.86663,0 -1.55513,-0.231 -2.03775,-0.6899 -0.49712,-0.4511 -0.73338,-1.0566 -0.72137,-1.8358 l 0.9,-3e-4 0,10e-4 z"
       id="path168"
       style="fill:#292929;fill-opacity:1;fill-rule:evenodd;stroke:none" />
    <path
       d="m 160.55842,1045.9381 0,3.4593 c 0,0.2736 0.0396,0.4936 0.11687,0.6562 0.15313,0.3218 0.45113,0.478 0.86675,0.478 0.58001,0 0.98613,-0.2806 1.20613,-0.822 0.118,-0.2976 0.175,-0.6927 0.175,-1.2107 l 0,-2.5619 0.88375,4e-4 0,5.2192 -0.83338,4e-4 0.0166,-0.7654 c -0.123,0.1914 -0.26463,0.36 -0.41638,0.5018 -0.33262,0.2736 -0.726,0.4096 -1.20437,0.4096 -0.733,0 -1.222,-0.247 -1.49875,-0.7426 -0.13537,-0.2644 -0.214,-0.6273 -0.214,-1.0705 l 0,-3.5518 0.90175,0 z"
       id="path170"
       style="fill:#292929;fill-opacity:1;fill-rule:evenodd;stroke:none" />
    <path
       d="m 165.7448,1045.9381 0.84437,0 0,0.8887 c 0.073,-0.1733 0.242,-0.3827 0.51163,-0.636 0.25975,-0.247 0.56375,-0.3707 0.90675,-0.3707 0.0222,0 0.0514,0 0.0842,0.01 0.0461,0 0.11837,0 0.20375,0.02 l 0,0.9128 c -0.0574,-0.02 -0.097,-0.02 -0.147,-0.026 -0.0394,0 -0.0829,0 -0.14138,0 -0.44475,0 -0.78837,0.1386 -1.02337,0.4142 -0.231,0.3044 -0.35538,0.6247 -0.35538,0.996 l 0,3.0133 -0.88362,0 0,-5.2196 z"
       id="path172"
       style="fill:#292929;fill-opacity:1;fill-rule:evenodd;stroke:none" />
    <path
       d="m 170.2153,1048.1254 c 0.0113,-0.4493 0.15175,-0.8189 0.42874,-1.1055 0.26438,-0.2994 0.60275,-0.4448 0.99575,-0.4448 0.56376,0 0.95813,0.2109 1.19376,0.6308 0.13075,0.237 0.22,0.5435 0.243,0.9205 l -2.86125,-3e-4 0,-7e-4 z m 1.48687,-2.3053 c -0.73175,0 -1.33512,0.2643 -1.7735,0.782 -0.451,0.524 -0.68175,1.2062 -0.68175,2.0445 0,0.8508 0.231,1.5123 0.68175,1.9878 0.43837,0.4734 0.99112,0.7094 1.6445,0.7094 0.25362,0 0.48438,-0.024 0.71538,-0.078 0.37625,-0.085 0.69662,-0.2707 0.96699,-0.5272 0.16401,-0.1517 0.30575,-0.3416 0.42875,-0.5801 0.135,-0.225 0.21363,-0.4419 0.226,-0.636 l -0.84612,0 c -0.0794,0.2339 -0.185,0.4419 -0.33738,0.6138 -0.27062,0.3007 -0.63062,0.451 -1.09312,0.451 -0.48888,0 -0.84438,-0.1549 -1.07538,-0.4844 -0.237,-0.3125 -0.343,-0.7473 -0.372,-1.2813 l 3.79625,-3e-4 c 0,-0.5347 -0.0226,-0.9174 -0.073,-1.1484 -0.0624,-0.349 -0.175,-0.6534 -0.339,-0.9191 -0.18537,-0.2807 -0.45112,-0.5014 -0.80475,-0.6694 -0.33725,-0.1814 -0.69725,-0.2643 -1.06362,-0.2643"
       id="path174"
       style="fill:#292929;fill-opacity:1;fill-rule:evenodd;stroke:none" />
    <path
       d="m 57.566166,1038.8415 131.289504,0 0,0.8813 -131.289504,0 0,-0.8813 z"
       id="path176"
       style="fill:#292929;fill-opacity:1;fill-rule:nonzero;stroke:none" />
  </g>
</svg>
